<svg width="122" height="122" viewBox="0 0 122 122" fill="none" xmlns="http://www.w3.org/2000/svg">
<g clip-path="url(#clip0_307_42)">
<path d="M60.9808 92.8496C54.1106 84.2333 50.0808 76.6846 48.7274 70.211C47.3968 64.9878 47.9115 60.817 50.2181 57.6831C52.639 54.0688 56.2342 52.3227 60.9808 52.3227C65.7273 52.3227 69.3416 54.0688 71.7625 57.725C74.0271 60.8246 74.6028 64.9917 73.2113 70.2529C71.7206 76.8447 67.6908 84.3897 60.9579 92.8915L60.9808 92.8496ZM109.769 98.6484C108.835 104.981 104.527 110.223 98.5911 112.785C87.1536 117.768 75.8152 109.827 66.1238 99.0449C82.1478 78.9683 85.1253 63.3408 78.2361 53.2339C74.2063 47.4351 68.4075 44.6177 60.9808 44.6177C46.0281 44.6177 37.8084 57.2675 41.0452 71.9609C42.9133 79.9252 47.9153 88.957 55.8568 99.064C50.8738 104.565 46.1463 108.496 41.9755 110.917C38.7386 112.663 35.6429 113.738 32.6806 113.994C19.0776 116.018 8.39496 102.835 13.2406 89.2125C13.9155 87.4435 15.2651 84.2295 17.5488 79.2428L17.667 78.9645C25.1128 62.8223 34.1484 44.4728 44.5146 24.1217L44.7929 23.4468L47.7323 17.7891C50.0351 13.5992 50.9691 11.731 54.6025 9.42828C56.3715 8.37603 58.5141 7.83847 60.935 7.83847C65.7807 7.83847 69.5513 10.6597 71.183 12.9434C71.976 14.1558 72.9291 15.7837 74.1415 17.7891L76.9818 23.3287L77.3783 24.1217C87.7445 44.4766 96.7992 62.7842 104.203 78.9645L104.321 79.1017L107.043 85.297L108.652 89.1896C109.884 92.2892 110.162 95.3849 109.743 98.6217L109.769 98.6484ZM115.965 86.517C115.031 83.5395 113.403 80.0434 111.397 75.8725V75.7124C101.805 55.3575 92.8914 37.0498 84.4314 20.6103L83.8748 19.7945C77.8396 7.42291 73.5277 -0.00384521 60.9808 -0.00384521C48.5901 -0.00384521 43.3289 8.6124 37.9456 19.8135L37.5301 20.6294C29.0511 37.0498 20.1565 55.3803 10.5833 75.7315V76.0098L7.74302 82.2051C6.69077 84.7671 6.13414 86.0977 5.99689 86.5132C-0.87323 105.377 13.2826 121.939 30.4007 121.939C30.538 121.939 31.0755 121.939 31.7313 121.821H33.6375C42.5321 120.73 51.6859 115.069 60.9808 104.962C70.2756 115.069 79.4676 120.727 88.3431 121.821H90.2303C90.9051 121.939 91.4426 121.939 91.5799 121.939C108.698 121.958 122.835 105.377 115.965 86.5132V86.517Z" fill="#BBBBBB"/>
</g>
<defs>
<clipPath id="clip0_307_42">
<rect width="122" height="122" fill="white"/>
</clipPath>
</defs>
</svg>
