<svg width="122" height="122" viewBox="0 0 122 122" fill="none" xmlns="http://www.w3.org/2000/svg">
<path d="M98.291 91.6072C97.8978 91.5 97.4212 91.5596 96.8732 91.7621C89.5341 95.1219 82.3976 97.5166 75.4636 98.9344C60.4877 101.984 45.893 100.388 31.6914 94.1569C27.7478 92.4174 22.2674 89.4865 15.25 85.3404C15.0692 85.1977 14.8486 85.1145 14.6186 85.1022C14.3803 85.0902 14.1777 85.1141 13.9871 85.2094C13.7965 85.3047 13.6535 85.4238 13.5463 85.5787C13.4391 85.7336 13.4152 85.9481 13.4986 86.2221C13.5701 86.4842 13.7488 86.782 14.0467 87.1037C15.2857 88.5572 16.8227 90.1061 18.6455 91.7502C20.4684 93.3943 22.8869 95.253 25.9012 97.326C28.9154 99.399 32.0726 101.246 35.349 102.854C38.6373 104.463 42.4498 105.821 46.7984 106.917C51.147 108.013 55.4957 108.561 59.8324 108.561C64.1453 108.561 68.339 108.12 72.4017 107.262C76.4763 106.393 79.9076 105.368 82.7074 104.177C85.4953 102.997 88.0687 101.675 90.4277 100.245C92.7867 98.8153 94.5261 97.6 95.658 96.635C96.7898 95.658 97.5999 94.8955 98.0646 94.3236C98.6126 93.6445 98.8867 93.0608 98.8867 92.5485C98.8986 92.0123 98.6841 91.7026 98.291 91.6072ZM62.8347 41.4728C61.0238 41.6277 58.8435 41.9613 56.282 42.4617C53.7205 42.9502 51.3496 43.5697 49.1574 44.2965C46.9652 45.0232 44.7254 46.0359 42.4498 47.3227C40.1623 48.6094 38.2203 50.0867 36.6119 51.7309C35.0035 53.375 33.693 55.4361 32.6684 57.9262C31.6437 60.4043 31.1314 63.1326 31.1314 66.1111C31.1314 69.3399 31.6914 72.2111 32.8351 74.7488C33.967 77.2865 35.4801 79.2762 37.3863 80.7535C39.2806 82.2309 41.4371 83.3865 43.8199 84.2324C46.2027 85.0783 48.7285 85.4596 51.3496 85.3524C53.9707 85.2451 56.5322 84.84 59.0222 84.1252C61.5004 83.4223 63.8355 82.2904 66.0039 80.7535C68.1722 79.2166 69.9474 77.3938 71.3414 75.3088C71.8537 76.0951 72.3064 76.6789 72.7115 77.0602L73.748 78.1205C74.439 78.8234 75.4994 79.86 76.9291 81.2301C78.3468 82.6002 79.8004 83.9346 81.2539 85.2451L93.6921 73.343L92.9773 72.7592C92.465 72.366 91.8574 71.8061 91.1664 71.0555C90.4753 70.3168 89.7843 69.4947 89.1171 68.6131C88.438 67.7315 87.8542 66.6949 87.3658 65.5273C86.8773 64.3598 86.6271 63.2279 86.6271 62.1318V30.8217C86.6271 29.6184 86.4007 28.3197 85.948 26.9139C85.4834 25.5199 84.6732 23.9949 83.4818 22.3508C82.2904 20.7066 80.813 19.2293 79.0498 17.9426C77.2746 16.6558 74.9156 15.5598 71.949 14.6781C68.9943 13.7965 65.6822 13.3557 62.0365 13.3557C58.3074 13.3557 54.8404 13.7965 51.5998 14.6543C48.3711 15.524 45.607 16.6797 43.2957 18.1332C40.9963 19.5867 39.0185 21.2666 37.3744 23.1848C35.7303 25.1029 34.5031 27.1045 33.7049 29.1894C32.9066 31.2744 32.5016 33.3832 32.5016 35.5158L48.6094 36.9336C49.2646 34.9797 50.1463 33.2879 51.2304 31.8344C52.3265 30.3809 53.3631 29.3324 54.3043 28.6771C55.2574 28.0219 56.282 27.4976 57.3662 27.1045C58.4623 26.7113 59.201 26.5088 59.5822 26.4611C59.9635 26.4254 60.2613 26.4135 60.4877 26.4135C63.6687 26.4135 65.8728 27.3547 67.1119 29.2252C67.8863 30.357 68.2675 32.0726 68.2675 34.384V41.1273C66.4566 41.1988 64.6457 41.318 62.8347 41.4728ZM68.2795 59.5703C68.2795 61.548 68.0173 63.3471 67.505 64.9316C66.409 68.3986 64.324 70.5789 61.2621 71.4606C58.5933 72.2469 56.0556 71.8537 53.649 70.293C51.0875 68.625 49.8127 66.266 49.8127 63.2279C49.8127 60.857 50.4084 58.8316 51.5998 57.1398C52.7912 55.46 54.3758 54.1971 56.3654 53.3631C58.3551 52.5291 60.297 51.9334 62.2033 51.5879C64.0976 51.2305 66.1349 51.016 68.2795 50.9445V59.5703ZM108.215 85.6502C107.703 85.0069 106.321 84.5899 104.057 84.3754C101.794 84.1609 99.8279 84.1729 98.1361 84.4231C96.3132 84.6375 94.4308 85.1617 92.5007 86.0195C90.5587 86.8654 89.7128 87.5803 89.9273 88.1402L90.0107 88.2951L90.1179 88.3785L90.2847 88.4024H90.8328C90.9281 88.4024 91.0472 88.3904 91.214 88.3785C91.3808 88.3666 91.5357 88.3428 91.6787 88.3309C91.8216 88.319 92.0242 88.2951 92.2863 88.2832C92.5365 88.2713 92.7747 88.2356 93.0011 88.1998C93.0369 88.1998 93.4419 88.1641 94.2283 88.0926C95.0146 88.0211 95.5865 87.9734 95.932 87.9377C96.2775 87.902 96.8613 87.8662 97.6595 87.8305C98.4578 87.7947 99.1011 87.7947 99.5777 87.8305C100.054 87.8662 100.59 87.9139 101.198 87.9615C101.806 88.0092 102.294 88.1164 102.675 88.2832C103.057 88.4381 103.343 88.6406 103.521 88.8908C104.141 89.6772 104.022 91.4166 103.164 94.1211C102.306 96.8256 101.496 98.982 100.733 100.579C100.4 101.258 100.4 101.675 100.733 101.853C101.067 102.032 101.532 101.865 102.151 101.377C104.01 99.9233 105.559 97.7311 106.81 94.7883C107.536 93.0488 108.06 91.2379 108.37 89.3436C108.656 87.4492 108.609 86.2221 108.215 85.6502Z" fill="#BBBBBB"/>
</svg>
