<svg width="122" height="122" viewBox="0 0 122 122" fill="none" xmlns="http://www.w3.org/2000/svg">
<path d="M109.068 51.6162C109.693 54.9661 110.034 58.4685 110.034 62.1234C110.034 90.7121 90.9003 111.04 62.0015 111.04C55.4296 111.042 48.9216 109.749 42.8495 107.235C36.7775 104.721 31.2603 101.035 26.6132 96.3883C21.9661 91.7412 18.2802 86.224 15.7662 80.152C13.2521 74.0799 11.9592 67.5719 11.9612 61C11.9592 54.428 13.2521 47.9201 15.7662 41.848C18.2802 35.7759 21.9661 30.2587 26.6132 25.6117C31.2603 20.9646 36.7775 17.2787 42.8495 14.7647C48.9216 12.2506 55.4296 10.9577 62.0015 10.9597C75.513 10.9597 86.8031 15.9312 95.4651 24.0035L81.3588 38.1097V38.0742C76.1078 33.0722 69.4435 30.5051 62.0015 30.5051C45.4908 30.5051 32.0709 44.4537 32.0709 60.9695C32.0709 77.4802 45.4908 91.4593 62.0015 91.4593C76.9821 91.4593 87.1793 82.8939 89.2736 71.1311H62.0015V51.6162H109.073H109.068Z" fill="#BBBBBB"/>
</svg>
